/* XPM */
static char *icon[] = {
"64 64 66 2",
"07 c #C0C0C0",
"09 c #A6CAF0",
"0A c #040404",
"0F c #1C1C1C",
"10 c #222222",
"11 c #292929",
"12 c #555555",
"13 c #4D4D4D",
"14 c #424242",
"15 c #393939",
"19 c #CCECFF",
"20 c #CC0000",
"22 c #333300",
"23 c #663300",
"24 c #993300",
"25 c #CC3300",
"2B c #CC6600",
"2C c #FF6600",
"31 c #CC9900",
"32 c #FF9900",
"43 c #333333",
"44 c #663333",
"45 c #993333",
"4A c #666633",
"4B c #996633",
"4C c #CC6633",
"52 c #CC9933",
"53 c #FF9933",
"59 c #FFCC33",
"66 c #333366",
"6C c #336666",
"6D c #666666",
"73 c #999966",
"74 c #CC9966",
"79 c #CCCC66",
"7A c #FFCC66",
"8B c #336699",
"90 c #339999",
"91 c #669999",
"92 c #999999",
"A0 c #FFFF99",
"AE c #666699",
"B3 c #3399CC",
"B4 c #6699CC",
"B5 c #9999CC",
"BB c #99CCCC",
"BC c #CCCCCC",
"CF c #6666CC",
"DD c #CCCCFF",
"E5 c #FFFF66",
"EA c #5F5F5F",
"EB c #777777",
"EC c #868686",
"ED c #969696",
"EE c #CBCBCB",
"EF c #B2B2B2",
"F0 c #D7D7D7",
"F1 c #DDDDDD",
"F2 c #E3E3E3",
"F3 c #EAEAEA",
"F4 c #F1F1F1",
"F5 c #F8F8F8",
"F7 c #A0A0A4",
"F8 c #808080",
"FF c #FFFFFF",
"   c None",
"                                                                                                                                ",
"                                                                                                                                ",
"                                                                                                                                ",
"                                                                                                                                ",
"                                                                                                                                ",
"                                                                                                                                ",
"                                                                                                                                ",
"                                                                                                                                ",
"                                                                                                                                ",
"                                            434343                                              111111111111114344              ",
"                                        1115EB1566434343                                      1174E5E5E5E559534C4411            ",
"                                    1143ECF2F3436C6C6C6666434343                            11E5A0E57A59595953532C4511          ",
"                                  1212F0F4F4F314156C6C6C6C6C6666434343                    11E5A0E57A7A59595959522B2C45          ",
"                                  1207F4F0F0F412436C6C6C6C6C6C6C6C6C144343              1173A0E5E57A5959595959522B252B15        ",
"                                  1207F3F0F0F4EB116C6C6C6C6C6C6C6C6C6C6C6643            11E5E5E57A595959595959522B252545        ",
"                                  12EDF4F0F0F492436C6C6C6C6C6C6C6C6C6C6C6C43          114BA0E57A59595959595953523125252511      ",
"                                  12EDF4F0F0F4EF436C6C6C6C6C6C6C6C6C6C6C6C43          1179E57A595959595959535352312B252544      ",
"                                    12F4F0F0F3BC436C6C6C6C6C6C6C6C6C6C6C6C6666        1179E57A5959595959595252312B25252544      ",
"                                    12F4F0F0F1F315666C6C6C6C6C6C6C6C6C6C6C6C66        437AE5595959595959525231312B25252545      ",
"                                    12F3F1F0F0F46D436C6C6C6C6C6C6C6C6C6C6C6C66        435959595959521553533131312B25252545      ",
"                                    12F4F3F3F3F592436C6C6C6C6C6C6C6C6C6C6C6C66        4352595959595343113232312B2B25252544      ",
"                                    12F2F1BC07BCEC43434343434343431515151515110F      434B535359593211092232312B2525252544      ",
"                                    12EB121212121212121212121212121212121212121212121212110F144A4A2311FF07102B2B2525252511      ",
"                                666666666D07F0F1F2F4F5F5F5F5FFFFFFFFFFFFFFFFFFFFFFFFFFFFFFFFFFFFF4F0F2FFFF070F2525252524        ",
"                      6666666666EBB507BC1919F3F2F2F1F2F2F2F3F3F3F3F3F4F4F4F4F4F4F4F4F5FFFFFFFFFFFFFFFFFFFFFFF01020252543        ",
"                666666AEB50909DDDDDD0909BCBCF0F1F1F1F2F2F2F3F3F3F3F3F4F4F4F4F4F4F4F4F4FFF5FFFFFFFFFFFFFFFFFFFFF0102544          ",
"          66666691B509090909BBBBBBBB0709BCF0F0F1F1F1F2F2F2F3F3F3F3F3F4F4F4F4F4F4F4F4F4FFFFFFFFFFFFFFFFFFFFFFFFFFF00F            ",
"      6666AEB5B5BBBBB5B5BBBBBBBBBB070909BCBCF0F0F1F1F2F2F2F3F4F4F4F4F5F5F5F5F5F5FFF5F5FFFFFFFFFFFFFFFFFFFFFFFFFFFFF211          ",
"  6666B4B4B4B4B5B5B5B5BBBBBBBBBBBBBB0709BCF1F3F4F4F4F5F5F5F5F5F5F5F4F5F5FFFFFFFFFFFFFFFFFFFFFFFFFFFFFFFFFFFFFFFFFFFFF443        ",
"66CFB4B4B4B4B4B5B5B5B5BBBBBBBBBB0909DD1919BCEFEFF8121212121212121212121212121212121212121212121212BCF3F4F4FFFFFFFFFFFFF411      ",
"66B4B4B4B4B4B4B5B5B5B5BB0909090909BBEFEFF7EB1212EA6D43431515666666666666666666666C11              121212121212EBEDBCF1F4F314    ",
"66B4B4B4B4B4B4B5B50909BBB591666666666643EB6D07F3F3F443668B6C6C6C8B8B8B8B8B8B8B8B8B66                            12121212121212  ",
"66CFB4B4B4B4B5B5916666666666F707F0F3F4EAEEF4F1F1F0F414158B6C6C6C6C6C6C6C8B8B8B8B8B8B66                                          ",
"66CFB4B4B4AE666666EBEEF2F4FFFFFFFFFFFFEAF7F4F0F0F0F4EC438B6C6C6C6C6C6C8B8B8B8B8B8B8B66                                          ",
"66B4B46666666DF2F5FFFFF5F5F5F5F5F5FFFFFF6DF4F0F0F019EF436C6C6C6C6C6C8B8B8B8B8B8B8B8B66                                          ",
"666614EDBCF5FFF5F3F3F4F4F4F4F4F5F5FFFFF5EAF4F0F0F0F3F0436C6C6C6C6C6C8B8B8B8B8B8B8B8B6666                                        ",
"  6666EDF0F2F3F5FFFFFFFFFFFFFFFFFFFFFFFF6DF4F0F0F0F2F3436C8B6C6C6C8B8B8B8B8B8B8B8B8B8B66                                        ",
"      6666666666EAEBEFBCF1F3F4F5FFFFFFFF12F3F1F0F0F1F443668B6C6C8B8B8B8B8B8B8B8B8B8B8B66                                        ",
"                  666666666666666666666612F3F2F0F0F0F412438B6C6C8B8B8B8B8B8B8B8B8B8B9066                                        ",
"                                        12F1F2F0F0F0F492438B6C6C8B8B8B8B8B8B8B8B8B8B8B6C66                                      ",
"                                        12F1F3F0F0F0F3BC438B8B8B8B8B8B8B8B8B8B8B8B8B8B8B66                                      ",
"                                        12BCF3F0F0F0F2F2436C8B8B8B8B8B8B8B8B8B8B8B8B8BB366                                      ",
"                                        1207F4F0F0F0F0F4436C8B8B8B8B8B8B8B8B8B8B8B8B8BB36666                                    ",
"                                        12F7F4F0F0F0F0F414668B8B8B8B8B8B8B8B8B8B8B8B8B908B66                                    ",
"                                        12EDF4F0F0F0F0F4EA438B8B8B8B8B8B8B8B8B8B8B8B8B8BB466                                    ",
"                                          12F4F0F0F0F0F4ED438B8B8B8B8B8B8B8B8B8B8B8B8B8BB466                                    ",
"                                          12F3F0F0F0F0F3EF438B8B8B8B8B8B8B8B8B8B8B8B8B8BB46C66                                  ",
"                                          12F3F1F0F0F0F3EE438B8B8B8B8B8B8B8B8B8B8B8B9091908B66                                  ",
"                                          12F3F1F0F0F0F3F0438B8B8B8B8B8B8B8B8B8B8B908B9091B466                                  ",
"                                          12F0F3F0F0F0F1F3436C8B8B8B8B8B8B8B8B8B8B90919191B466                                  ",
"                                          1107F3F0F0F0F0F4136C8B8B8B8B8B8B8B8B8B9090909191B48B66                                ",
"                                          15EFF4F0F0F0F0F4EB438B8B8B8B8B8B8B8B8B8B90909190B48B66                                ",
"                                          15F7F4F0F1F1F0F4ED438B8B8B8B8B909090B4B4B4B4B4B4B4B466                                ",
"                                          15EDF5F4F4F4F4F5EE43B38B8B8B8B8B908B8B8B8B8B8B6C8B8B140A0A0A0A0A                      ",
"                                  0A0A0A0A0A13131414141413140F431543434343431111111111111011100F0A0A0A0A0A0A0A0A0A0A0A0A0A0A0A0A",
"              0A0A0A0A0A0A0A0A0A0A0A0A0A0A0A0A0A0A0A0A0A0A0A0A0A0A0A0A0A0A0A0A0A0A0A0A0A0A0A0A0A0A0A0A0A0A0A0A0A0A0A0A0A0A0A    ",
"                                                                                                                                ",
"                                                                                                                                ",
"                                                                                                                                ",
"                                                                                                                                ",
"                                                                                                                                ",
"                                                                                                                                ",
"                                                                                                                                ",
"                                                                                                                                "};
